<svg width="9" height="9" viewBox="0 0 9 9" fill="none" xmlns="http://www.w3.org/2000/svg">
<path fill-rule="evenodd" clip-rule="evenodd" d="M4.5 0C3.30653 0 2.16193 0.474106 1.31802 1.31802C0.474106 2.16193 0 3.30653 0 4.5C0 5.69347 0.474106 6.83807 1.31802 7.68198C2.16193 8.52589 3.30653 9 4.5 9C5.69347 9 6.83807 8.52589 7.68198 7.68198C8.52589 6.83807 9 5.69347 9 4.5C9 3.30653 8.52589 2.16193 7.68198 1.31802C6.83807 0.474106 5.69347 0 4.5 0ZM5.17744 2.18662H6.14494V3.92869H6.72581V2.57381H7.5V4.77244H6.9375V4.39744H6.1875V3.9375H5.25V4.5H4.875V4.125H5.17744V2.18662ZM1.5 2.38031H2.1V3.54169H2.85506V2.96119H3.24206V2.7675H3.82256V2.96119H4.20956V3.5625H3.75V4.02281H2.796V4.39781H2.34375V5.24156H2.14687V4.86656H1.5V2.38031ZM3.9375 3.75H4.6875V4.51612L4.63256 4.46119C4.61491 4.4433 4.59376 4.42922 4.57044 4.41983C4.54713 4.41045 4.52213 4.40595 4.497 4.40663C4.44837 4.40732 4.40191 4.42688 4.36744 4.46119L3.363 5.46562C3.33795 5.49063 3.32049 5.52222 3.31264 5.55673C3.30479 5.59124 3.30687 5.62727 3.31864 5.66066C3.33041 5.69404 3.35138 5.7234 3.37914 5.74536C3.4069 5.76732 3.44031 5.78098 3.4755 5.78475V6.9375H1.5L1.50937 5.05369H1.95937V5.42869H2.53125V4.58494H2.9835V4.20994H3.59756V4.58494H3.9375V3.75ZM5.4375 4.125H6V4.58494H6.75V4.95994H7.5V6.9375H5.52469V5.78475C5.55988 5.78098 5.59329 5.76732 5.62105 5.74536C5.6488 5.7234 5.66978 5.69404 5.68155 5.66066C5.69332 5.62727 5.69539 5.59124 5.68754 5.55673C5.67969 5.52222 5.66224 5.49063 5.63719 5.46562L5.43825 5.26688C5.44012 5.25638 5.44087 5.235 5.44087 5.235L5.4375 4.125ZM4.5 4.59375L5.50444 5.59819H3.49556L4.5 4.59375ZM5.08594 4.92844H5.25337V5.23462L5.08594 5.06981V4.92844ZM3.66281 5.68181H5.33719V6.9375H4.66744V6.18563H4.33256V6.9375H3.66281V5.68181Z" fill="white"/>
</svg>
