<svg width="10" height="8" viewBox="0 0 10 8" fill="none" xmlns="http://www.w3.org/2000/svg">
<path d="M8.98948 5.19421C8.98948 5.41553 8.92011 5.63188 8.79015 5.8159C8.66018 5.99992 8.47546 6.14335 8.25933 6.22804C8.04321 6.31274 7.80539 6.3349 7.57596 6.29172C7.34652 6.24854 7.13577 6.14197 6.97036 5.98547C6.80494 5.82897 6.69229 5.62958 6.64666 5.41252C6.60102 5.19545 6.62444 4.97046 6.71396 4.76598C6.80348 4.56151 6.95508 4.38675 7.14959 4.26379C7.3441 4.14083 7.57277 4.0752 7.8067 4.0752C8.12029 4.07551 8.42095 4.19351 8.64269 4.4033C8.86443 4.61308 8.98915 4.89753 8.98948 5.19421ZM7.07115 6.66041V7.83121C7.07113 7.86059 7.07923 7.88946 7.09462 7.91496C7.11002 7.94047 7.13219 7.96173 7.15894 7.97664C7.18569 7.99156 7.21609 7.9996 7.24714 7.99999C7.27818 8.00037 7.3088 7.99308 7.33595 7.97883L7.67725 7.8C7.7169 7.77924 7.76147 7.76834 7.80679 7.76834C7.85211 7.76834 7.89669 7.77924 7.93634 7.8L8.27746 7.97883C8.30461 7.99303 8.3352 8.00029 8.36622 7.99989C8.39724 7.99949 8.42761 7.99143 8.45433 7.97653C8.48106 7.96162 8.50321 7.94037 8.5186 7.91489C8.53399 7.88941 8.54208 7.86056 8.54208 7.83121V6.66041C8.31263 6.76489 8.06126 6.81913 7.80661 6.81913C7.55197 6.81913 7.3006 6.76489 7.07115 6.66041ZM10 0.168703V6.63848C10 6.68322 9.98121 6.72613 9.94777 6.75777C9.91433 6.78941 9.86898 6.80718 9.82168 6.80718H9.07632V6.2842C9.36459 5.98683 9.52433 5.59788 9.52389 5.19438C9.52459 4.93025 9.4572 4.66994 9.32758 4.43601C9.19795 4.20208 9.00999 4.00157 8.77999 3.85187C8.54998 3.70216 8.28486 3.60777 8.00759 3.57687C7.73033 3.54597 7.44928 3.5795 7.1888 3.67454C6.92832 3.76959 6.69626 3.92328 6.51273 4.12232C6.3292 4.32135 6.19973 4.55972 6.13553 4.81677C6.07134 5.07383 6.07436 5.34181 6.14433 5.59751C6.2143 5.85321 6.34911 6.08892 6.53709 6.2842V6.80718H0.178317C0.131024 6.80718 0.0856686 6.78941 0.0522278 6.75777C0.0187869 6.72613 0 6.68322 0 6.63848V0.168703C0 0.123961 0.0187869 0.0810501 0.0522278 0.049412C0.0856686 0.017774 0.131024 0 0.178317 0H9.82168C9.86898 0 9.91433 0.017774 9.94777 0.049412C9.98121 0.0810501 10 0.123961 10 0.168703ZM3.10093 1.36144C3.10088 1.39468 3.10777 1.42761 3.12119 1.45833C3.13462 1.48905 3.15432 1.51697 3.17916 1.54047C3.20401 1.56398 3.23352 1.58262 3.26599 1.59532C3.29846 1.60802 3.33326 1.61454 3.3684 1.61449H6.6316C6.70254 1.61449 6.77057 1.58783 6.82073 1.54037C6.87089 1.49292 6.89907 1.42855 6.89907 1.36144C6.89907 1.29432 6.87089 1.22996 6.82073 1.1825C6.77057 1.13504 6.70254 1.10838 6.6316 1.10838H3.3684C3.33326 1.10834 3.29846 1.11485 3.26599 1.12755C3.23352 1.14026 3.20401 1.15889 3.17916 1.1824C3.15432 1.20591 3.13462 1.23382 3.12119 1.26454C3.10777 1.29527 3.10088 1.32819 3.10093 1.36144ZM5.52425 4.80974C5.5243 4.77649 5.51741 4.74357 5.50399 4.71284C5.49056 4.68212 5.47086 4.65421 5.44601 4.6307C5.42117 4.60719 5.39166 4.58855 5.35919 4.57585C5.32672 4.56315 5.29191 4.55664 5.25678 4.55668H1.2607C1.18976 4.55668 1.12173 4.58334 1.07157 4.6308C1.0214 4.67826 0.993224 4.74262 0.993224 4.80974C0.993224 4.87685 1.0214 4.94122 1.07157 4.98867C1.12173 5.03613 1.18976 5.06279 1.2607 5.06279H5.25678C5.29191 5.06284 5.32672 5.05632 5.35919 5.04362C5.39166 5.03092 5.42117 5.01228 5.44601 4.98877C5.47086 4.96526 5.49056 4.93735 5.50399 4.90663C5.51741 4.87591 5.5243 4.84298 5.52425 4.80974ZM5.8898 3.66087C5.88985 3.62762 5.88296 3.59469 5.86954 3.56397C5.85611 3.53325 5.83641 3.50534 5.81156 3.48183C5.78672 3.45832 5.75721 3.43968 5.72474 3.42698C5.69227 3.41428 5.65746 3.40777 5.62233 3.40781H1.2607C1.18976 3.40781 1.12173 3.43447 1.07157 3.48193C1.0214 3.52938 0.993224 3.59375 0.993224 3.66087C0.993224 3.72798 1.0214 3.79234 1.07157 3.8398C1.12173 3.88726 1.18976 3.91392 1.2607 3.91392H5.62233C5.65746 3.91396 5.69227 3.90745 5.72474 3.89475C5.75721 3.88205 5.78672 3.86341 5.81156 3.8399C5.83641 3.81639 5.85611 3.78848 5.86954 3.75776C5.88296 3.72704 5.88985 3.69411 5.8898 3.66087ZM9.00678 2.51031C9.00659 2.44325 8.97835 2.37899 8.92823 2.33157C8.87811 2.28415 8.81018 2.25743 8.7393 2.25725H1.2607C1.18976 2.25725 1.12173 2.28391 1.07157 2.33137C1.0214 2.37883 0.993224 2.44319 0.993224 2.51031C0.993224 2.57742 1.0214 2.64179 1.07157 2.68924C1.12173 2.7367 1.18976 2.76336 1.2607 2.76336H8.7393C8.77444 2.76341 8.80924 2.75689 8.84171 2.74419C8.87419 2.73149 8.90369 2.71285 8.92854 2.68934C8.95339 2.66584 8.97309 2.63792 8.98651 2.6072C8.99994 2.57648 9.00682 2.54355 9.00678 2.51031Z" fill="white"/>
</svg>
