<svg width="24" height="24" viewBox="0 0 24 24" fill="none" xmlns="http://www.w3.org/2000/svg">
<path d="M10.8086 13.4951C10.8086 14.1367 11.1777 14.6113 11.8457 14.6113C12.4434 14.6113 12.7422 14.251 12.8301 13.6709C12.9004 12.8711 13.1816 12.4492 14.333 11.7812C15.5283 11.0693 16.1963 10.1465 16.1963 8.80176C16.1963 6.81543 14.5615 5.46191 12.1797 5.46191C10.3691 5.46191 8.99805 6.2002 8.45312 7.39551C8.28613 7.72949 8.20703 8.05469 8.20703 8.43262C8.20703 9.02148 8.56738 9.39062 9.17383 9.39062C9.65723 9.39062 9.98242 9.1709 10.1758 8.62598C10.457 7.73828 11.1074 7.25488 12.083 7.25488C13.1641 7.25488 13.9111 7.92285 13.9111 8.88086C13.9111 9.72461 13.542 10.208 12.4521 10.8672C11.3535 11.5176 10.8086 12.2383 10.8086 13.3281V13.4951Z" fill="black"/>
<path d="M10.5801 17.1777C10.5801 17.8721 11.1514 18.4258 11.8633 18.4258C12.5752 18.4258 13.1377 17.8721 13.1377 17.1777C13.1377 16.4834 12.5752 15.9385 11.8633 15.9385C11.1514 15.9385 10.5801 16.4834 10.5801 17.1777Z" fill="black"/>
<path fill-rule="evenodd" clip-rule="evenodd" d="M12 1C5.92487 1 1 5.92487 1 12C1 18.0751 5.92487 23 12 23C18.0751 23 23 18.0751 23 12C23 5.92487 18.0751 1 12 1ZM3 12C3 7.02944 7.02944 3 12 3C16.9706 3 21 7.02944 21 12C21 16.9706 16.9706 21 12 21C7.02944 21 3 16.9706 3 12Z" fill="black"/>
</svg>
