<?xml version="1.0" encoding="UTF-8"?>
<svg xmlns="http://www.w3.org/2000/svg" xmlns:xlink="http://www.w3.org/1999/xlink" width="32px" height="32px" viewBox="0 0 32 32" version="1.1">
<g id="surface1">
<path style="fill:none;stroke-width:16;stroke-linecap:round;stroke-linejoin:round;stroke:rgb(0%,0%,0%);stroke-opacity:1;stroke-miterlimit:4;" d="M 48 56 L 200 56 C 204.40625 56 208 59.59375 208 64 L 208 128 C 208 132.40625 204.40625 136 200 136 L 48 136 C 43.59375 136 40 132.40625 40 128 L 40 64 C 40 59.59375 43.59375 56 48 56 Z M 48 56 " transform="matrix(0.125,0,0,0.125,0,0)"/>
<path style="fill:none;stroke-width:16;stroke-linecap:round;stroke-linejoin:round;stroke:rgb(0%,0%,0%);stroke-opacity:1;stroke-miterlimit:4;" d="M 208 96 L 232 96 C 236.40625 96 240 99.59375 240 104 L 240 154 C 240 157.5625 237.625 160.71875 234.1875 161.6875 L 133.8125 190.34375 C 130.375 191.3125 128 194.4375 128 198 L 128 232 " transform="matrix(0.125,0,0,0.125,0,0)"/>
<path style="fill:none;stroke-width:16;stroke-linecap:round;stroke-linejoin:round;stroke:rgb(0%,0%,0%);stroke-opacity:1;stroke-miterlimit:4;" d="M 40 96 L 16 96 " transform="matrix(0.125,0,0,0.125,0,0)"/>
</g>
</svg>
