<svg width="24" height="24" viewBox="0 0 24 24" fill="none" xmlns="http://www.w3.org/2000/svg">
<path fill-rule="evenodd" clip-rule="evenodd" d="M15 2C15.5523 2 16 1.55228 16 1C16 0.447715 15.5523 0 15 0H9C8.44772 0 8 0.447715 8 1C8 1.55228 8.44772 2 9 2H15ZM17 6C17.5523 6 18 5.55228 18 5C18 4.44772 17.5523 4 17 4H7C6.44772 4 6 4.44772 6 5C6 5.55228 6.44772 6 7 6H17ZM18 10H6V22H18V10ZM6 8C4.89543 8 4 8.89543 4 10V22C4 23.1046 4.89543 24 6 24H18C19.1046 24 20 23.1046 20 22V10C20 8.89543 19.1046 8 18 8H6Z" fill="black"/>
</svg>
