<svg width="76" height="92" viewBox="0 0 76 92" fill="none" xmlns="http://www.w3.org/2000/svg">
<g clip-path="url(#clip0_27_36)">
<path fill-rule="evenodd" clip-rule="evenodd" d="M60.6655 4.7628C60.6655 4.36913 60.9691 4.05 61.3436 4.05H62.3382C62.7127 4.05 63.0163 4.36913 63.0163 4.7628V6.1409C63.0163 6.27212 63.1176 6.37851 63.2424 6.37851H64.5535C64.928 6.37851 65.2316 6.69762 65.2316 7.09128V8.13672C65.2316 8.53043 64.928 8.84954 64.5535 8.84954H63.2424C63.1176 8.84954 63.0163 8.95592 63.0163 9.08715V10.4653C63.0163 10.8589 62.7127 11.178 62.3382 11.178H61.3436C60.9691 11.178 60.6655 10.8589 60.6655 10.4653V9.08715C60.6655 8.95592 60.5643 8.84954 60.4394 8.84954H59.1283C58.7538 8.84954 58.4502 8.53043 58.4502 8.13672V7.09128C58.4502 6.69762 58.7538 6.37851 59.1283 6.37851H60.4394C60.5643 6.37851 60.6655 6.27212 60.6655 6.1409V4.7628ZM61.3436 4.5252C61.2188 4.5252 61.1176 4.63158 61.1176 4.7628V6.1409C61.1176 6.53456 60.8139 6.85367 60.4394 6.85367H59.1283C59.0035 6.85367 58.9023 6.96006 58.9023 7.09128V8.13672C58.9023 8.26794 59.0035 8.37433 59.1283 8.37433H60.4394C60.8139 8.37433 61.1176 8.69348 61.1176 9.08715V10.4653C61.1176 10.5965 61.2188 10.7028 61.3436 10.7028H62.3382C62.4631 10.7028 62.5643 10.5965 62.5643 10.4653V9.08715C62.5643 8.69348 62.8679 8.37433 63.2424 8.37433H64.5535C64.6783 8.37433 64.7795 8.26794 64.7795 8.13672V7.09128C64.7795 6.96006 64.6783 6.85367 64.5535 6.85367H63.2424C62.8679 6.85367 62.5643 6.53456 62.5643 6.1409V4.7628C62.5643 4.63158 62.4631 4.5252 62.3382 4.5252H61.3436ZM65.955 3.09959C65.955 2.83714 66.1574 2.62438 66.4071 2.62438H66.7688C67.0185 2.62438 67.2208 2.83714 67.2208 3.09959V3.62231H67.7181C67.9678 3.62231 68.1702 3.83507 68.1702 4.09752V4.47768C68.1702 4.74013 67.9678 4.95287 67.7181 4.95287H67.2208V5.47561C67.2208 5.73805 67.0185 5.95078 66.7688 5.95078H66.4071C66.1574 5.95078 65.955 5.73805 65.955 5.47561V4.95287H65.4576C65.208 4.95287 65.0055 4.74013 65.0055 4.47768V4.09752C65.0055 3.83507 65.208 3.62231 65.4576 3.62231H65.955V3.09959ZM66.7688 3.09959H66.4071V3.62231C66.4071 3.88476 66.2047 4.09752 65.955 4.09752H65.4576V4.47768H65.955C66.2047 4.47768 66.4071 4.69043 66.4071 4.95287V5.47561H66.7688V4.95287C66.7688 4.69043 66.9712 4.47768 67.2208 4.47768H67.7181V4.09752H67.2208C66.9712 4.09752 66.7688 3.88476 66.7688 3.62231V3.09959ZM63.0164 0.961226C63.0164 0.69878 63.2188 0.486023 63.4685 0.486023H63.8302C64.0799 0.486023 64.2823 0.69878 64.2823 0.961226V1.48395H64.7795C65.0292 1.48395 65.2316 1.69671 65.2316 1.95915V2.33931C65.2316 2.60176 65.0292 2.81452 64.7795 2.81452H64.2823V3.33724C64.2823 3.59968 64.0799 3.81244 63.8302 3.81244H63.4685C63.2188 3.81244 63.0164 3.59968 63.0164 3.33724V2.81452H62.5191C62.2694 2.81452 62.067 2.60176 62.067 2.33931V1.95915C62.067 1.69671 62.2694 1.48395 62.5191 1.48395H63.0164V0.961226ZM63.8302 0.961226H63.4685V1.48395C63.4685 1.7464 63.2661 1.95915 63.0164 1.95915H62.5191V2.33931H63.0164C63.2661 2.33931 63.4685 2.55207 63.4685 2.81452V3.33724H63.8302V2.81452C63.8302 2.55207 64.0326 2.33931 64.2823 2.33931H64.7795V1.95915H64.2823C64.0326 1.95915 63.8302 1.7464 63.8302 1.48395V0.961226Z" fill="white"/>
</g>
<path d="M13.8976 32.9092H23.8244L27.7951 26.9531L35.7366 38.8653L39.7074 32.9092H45.6635" stroke="white" stroke-width="4" stroke-linecap="round" stroke-linejoin="round"/>
<path d="M12.9332 24.9661C12.9145 24.637 12.905 24.3066 12.9049 23.9751C12.9054 20.9924 13.9389 18.1019 15.8297 15.7951C17.7205 13.4883 20.3519 11.9076 23.2764 11.3216C26.201 10.7357 29.2382 11.1807 31.8718 12.5811C34.5053 13.9814 36.5725 16.2507 37.722 19.0029C38.8715 16.2507 40.9387 13.9815 43.5723 12.5811C46.2058 11.1808 49.243 10.7357 52.1676 11.3216C55.0922 11.9076 57.7235 13.4883 59.6143 15.7951C61.5051 18.1019 62.5386 20.9924 62.5392 23.9751C62.5392 40.8507 37.722 54.7483 37.722 54.7483C37.722 54.7483 27.8089 49.197 20.5132 40.851" stroke="white" stroke-width="4" stroke-linecap="round" stroke-linejoin="round"/>
<path d="M23.569 66.4044H21.5768C21.52 66.0776 21.4152 65.7882 21.2625 65.5361C21.1098 65.2804 20.9198 65.0638 20.6926 64.8862C20.4653 64.7087 20.2061 64.5755 19.9149 64.4867C19.6272 64.3944 19.3165 64.3482 18.9827 64.3482C18.3896 64.3482 17.8641 64.4974 17.406 64.7957C16.9479 65.0904 16.5892 65.5237 16.33 66.0954C16.0708 66.6636 15.9411 67.3578 15.9411 68.1781C15.9411 69.0127 16.0708 69.7158 16.33 70.2875C16.5928 70.8557 16.9514 71.2854 17.406 71.5766C17.8641 71.8642 18.3879 72.008 18.9774 72.008C19.3041 72.008 19.6095 71.9654 19.8936 71.8802C20.1812 71.7914 20.4387 71.6618 20.6659 71.4914C20.8968 71.3209 21.0903 71.1114 21.2465 70.8628C21.4063 70.6142 21.5164 70.3301 21.5768 70.0105L23.569 70.0212C23.4944 70.5397 23.3328 71.0262 23.0843 71.4807C22.8392 71.9352 22.5178 72.3365 22.1201 72.6845C21.7224 73.029 21.2572 73.2989 20.7245 73.4942C20.1919 73.686 19.6006 73.7818 18.9507 73.7818C17.9919 73.7818 17.1361 73.5599 16.3833 73.116C15.6304 72.6721 15.0374 72.0311 14.6041 71.1931C14.1709 70.355 13.9543 69.35 13.9543 68.1781C13.9543 67.0027 14.1727 65.9977 14.6095 65.1632C15.0463 64.3252 15.6411 63.6842 16.3939 63.2403C17.1468 62.7964 17.999 62.5745 18.9507 62.5745C19.558 62.5745 20.1226 62.6597 20.6446 62.8301C21.1666 63.0006 21.6318 63.2509 22.0402 63.5812C22.4486 63.9079 22.7842 64.3092 23.047 64.785C23.3133 65.2573 23.4873 65.7971 23.569 66.4044ZM27.2218 62.7236V73.6327H25.2935V62.7236H27.2218ZM29.2046 73.6327V65.4509H31.1329V73.6327H29.2046ZM30.1741 64.2897C29.8687 64.2897 29.6059 64.1884 29.3857 63.986C29.1656 63.7801 29.0555 63.5333 29.0555 63.2456C29.0555 62.9544 29.1656 62.7076 29.3857 62.5052C29.6059 62.2992 29.8687 62.1963 30.1741 62.1963C30.483 62.1963 30.7458 62.2992 30.9624 62.5052C31.1826 62.7076 31.2927 62.9544 31.2927 63.2456C31.2927 63.5333 31.1826 63.7801 30.9624 63.986C30.7458 64.1884 30.483 64.2897 30.1741 64.2897ZM35.044 68.8387V73.6327H33.1158V65.4509H34.9588V66.8411H35.0547C35.2429 66.383 35.543 66.0191 35.9549 65.7492C36.3704 65.4793 36.8835 65.3443 37.4943 65.3443C38.0589 65.3443 38.5508 65.4651 38.9698 65.7066C39.3924 65.948 39.7191 66.2978 39.9499 66.7559C40.1843 67.214 40.2997 67.7698 40.2962 68.4232V73.6327H38.3679V68.7215C38.3679 68.1746 38.2259 67.7467 37.9418 67.4377C37.6612 67.1288 37.2724 66.9743 36.7752 66.9743C36.4379 66.9743 36.1378 67.0489 35.875 67.198C35.6158 67.3436 35.4116 67.5549 35.2624 67.8319C35.1168 68.1089 35.044 68.4445 35.044 68.8387ZM42.2564 73.6327V65.4509H44.1847V73.6327H42.2564ZM43.2259 64.2897C42.9205 64.2897 42.6577 64.1884 42.4375 63.986C42.2173 63.7801 42.1072 63.5333 42.1072 63.2456C42.1072 62.9544 42.2173 62.7076 42.4375 62.5052C42.6577 62.2992 42.9205 62.1963 43.2259 62.1963C43.5348 62.1963 43.7976 62.2992 44.0142 62.5052C44.2344 62.7076 44.3445 62.9544 44.3445 63.2456C44.3445 63.5333 44.2344 63.7801 44.0142 63.986C43.7976 64.1884 43.5348 64.2897 43.2259 64.2897ZM49.7364 73.7925C48.9197 73.7925 48.2183 73.6132 47.6324 73.2545C47.05 72.8958 46.6008 72.4004 46.2847 71.7683C45.9722 71.1327 45.816 70.4012 45.816 69.5737C45.816 68.7428 45.9758 68.0095 46.2954 67.3738C46.615 66.7346 47.066 66.2374 47.6483 65.8823C48.2343 65.5237 48.9268 65.3443 49.7258 65.3443C50.3898 65.3443 50.9775 65.4669 51.4889 65.7119C52.0038 65.9534 52.414 66.296 52.7194 66.7399C53.0248 67.1803 53.1988 67.6952 53.2414 68.2847H51.3983C51.3238 67.8905 51.1462 67.562 50.8657 67.2992C50.5887 67.0329 50.2176 66.8997 49.7524 66.8997C49.3582 66.8997 49.012 67.0063 48.7137 67.2193C48.4154 67.4289 48.1828 67.7307 48.0159 68.1249C47.8525 68.5191 47.7709 68.9914 47.7709 69.5418C47.7709 70.0993 47.8525 70.5787 48.0159 70.98C48.1792 71.3777 48.4083 71.6849 48.703 71.9015C49.0013 72.1146 49.3511 72.2211 49.7524 72.2211C50.0365 72.2211 50.2904 72.1678 50.5141 72.0613C50.7414 71.9512 50.9314 71.7932 51.0841 71.5872C51.2368 71.3813 51.3415 71.1309 51.3983 70.8362H53.2414C53.1952 71.415 53.0248 71.9281 52.73 72.3756C52.4353 72.8195 52.034 73.1675 51.5262 73.4196C51.0184 73.6682 50.4218 73.7925 49.7364 73.7925ZM61.2914 67.6135L59.5336 67.8053C59.4838 67.6277 59.3968 67.4608 59.2725 67.3046C59.1518 67.1483 58.9885 67.0222 58.7825 66.9264C58.5765 66.8305 58.3244 66.7825 58.0261 66.7825C57.6248 66.7825 57.2875 66.8696 57.014 67.0436C56.7441 67.2176 56.611 67.4431 56.6145 67.72C56.611 67.958 56.698 68.1515 56.8755 68.3007C57.0566 68.4498 57.3549 68.5723 57.7704 68.6682L59.166 68.9665C59.9402 69.1334 60.5154 69.398 60.8919 69.7602C61.2718 70.1224 61.4636 70.5965 61.4672 71.1824C61.4636 71.6973 61.3127 72.1519 61.0144 72.546C60.7196 72.9367 60.3095 73.2421 59.7839 73.4622C59.2583 73.6824 58.6547 73.7925 57.9728 73.7925C56.9714 73.7925 56.1653 73.583 55.5545 73.1639C54.9437 72.7414 54.5797 72.1536 54.4625 71.4008L56.3429 71.2197C56.4281 71.589 56.6092 71.8678 56.8862 72.056C57.1632 72.2442 57.5236 72.3383 57.9675 72.3383C58.4256 72.3383 58.7931 72.2442 59.0701 72.056C59.3507 71.8678 59.4909 71.6352 59.4909 71.3582C59.4909 71.1238 59.4004 70.9303 59.2193 70.7776C59.0417 70.6249 58.7647 70.5077 58.3883 70.426L56.9927 70.133C56.2079 69.9697 55.6273 69.6945 55.2509 69.3074C54.8745 68.9168 54.688 68.4232 54.6916 67.8266C54.688 67.3223 54.8248 66.8855 55.1017 66.5162C55.3823 66.1433 55.7711 65.8557 56.2683 65.6533C56.769 65.4473 57.3461 65.3443 57.9995 65.3443C58.9583 65.3443 59.7129 65.5485 60.2633 65.9569C60.8173 66.3653 61.16 66.9175 61.2914 67.6135Z" fill="white"/>
<defs>
<clipPath id="clip0_27_36">
<rect width="11.6641" height="11.6641" fill="white" transform="translate(57.4782)"/>
</clipPath>
</defs>
</svg>
