<svg width="24" height="24" viewBox="0 0 24 24" fill="none" xmlns="http://www.w3.org/2000/svg">
<path fill-rule="evenodd" clip-rule="evenodd" d="M13.9802 2.28318C13.9933 2.19067 14.0001 2.09613 14.0001 2C14.0001 0.895431 13.1046 0 12.0001 0C10.8955 0 10.0001 0.895431 10.0001 2C10.0001 2.09613 10.0069 2.19067 10.02 2.28318C7.53606 3.01069 5.58675 5.07554 5.08217 7.72458L4.06118 13.0848C4.05518 13.1163 4.04351 13.1464 4.02672 13.1736L2.02422 16.4277C0.794186 18.4265 2.23224 21 4.5792 21H9.00007C9.00007 22.6569 10.3432 24 12.0001 24C13.6569 24 15.0001 22.6569 15.0001 21H19.4209C21.7679 21 23.206 18.4265 21.9759 16.4277L19.9734 13.1736C19.9566 13.1464 19.945 13.1163 19.939 13.0848L18.918 7.72458C18.4134 5.07554 16.4641 3.01069 13.9802 2.28318ZM12.0001 4C9.57911 4 7.49984 5.7206 7.04685 8.0988L6.02585 13.459C5.9744 13.7292 5.87416 13.9876 5.73004 14.2218L3.72754 17.4759C3.31753 18.1422 3.79688 19 4.5792 19H19.4209C20.2033 19 20.6826 18.1422 20.2726 17.4759L18.2701 14.2218C18.126 13.9876 18.0257 13.7292 17.9743 13.459L16.9533 8.0988C16.5003 5.7206 14.421 4 12.0001 4ZM12.0001 22C12.5524 22 13.0001 21.5523 13.0001 21H11.0001C11.0001 21.5523 11.4478 22 12.0001 22Z" fill="black"/>
</svg>
