<svg width="27" height="22" viewBox="0 0 27 22" fill="none" xmlns="http://www.w3.org/2000/svg">
<mask id="path-1-inside-1_147_590" fill="white">
<path d="M13.1902 7.19303C12.3696 7.1926 11.5789 7.49108 10.9757 8.02902C10.8541 7.92954 10.7004 7.8742 10.5411 7.87255C10.0486 7.87657 9.56002 7.78695 9.10324 7.60879C9.75081 6.79242 10.1481 5.81652 10.2498 4.79238H10.5549C10.7389 4.79238 10.9153 4.72173 11.0453 4.59597C11.1754 4.47021 11.2484 4.29965 11.2484 4.1218C11.2484 3.94395 11.1754 3.77339 11.0453 3.64763C10.9153 3.52187 10.7389 3.45123 10.5549 3.45123H8.57156V2.4096C8.57156 2.23175 8.4985 2.06119 8.36844 1.93543C8.23839 1.80967 8.06199 1.73902 7.87807 1.73902C7.69414 1.73902 7.51775 1.80967 7.3877 1.93543C7.25764 2.06119 7.18458 2.23175 7.18458 2.4096V3.4557H5.21506C5.03114 3.4557 4.85474 3.52635 4.72469 3.6521C4.59463 3.77786 4.52157 3.94842 4.52157 4.12627C4.52157 4.30412 4.59463 4.47468 4.72469 4.60044C4.85474 4.7262 5.03114 4.79685 5.21506 4.79685H8.83971C8.74575 5.54164 8.43829 6.24619 7.95204 6.83092C7.59962 6.44654 7.32375 6.00245 7.13834 5.52107C7.1131 5.43219 7.06919 5.34929 7.00933 5.27756C6.94948 5.20582 6.87498 5.14679 6.79047 5.10415C6.70597 5.0615 6.61328 5.03616 6.5182 5.0297C6.42311 5.02324 6.32767 5.03581 6.23783 5.06661C6.14799 5.09742 6.06568 5.1458 5.99605 5.20874C5.92641 5.27168 5.87094 5.34782 5.8331 5.43242C5.79526 5.51702 5.77586 5.60825 5.77612 5.70042C5.77637 5.79259 5.79627 5.88372 5.83458 5.96812C6.06182 6.55881 6.39174 7.10763 6.81009 7.59091C6.30519 7.77571 5.76874 7.86672 5.22893 7.85914C5.04501 7.85914 4.86861 7.92979 4.73856 8.05554C4.6085 8.1813 4.53544 8.35186 4.53544 8.52971C4.53544 8.70756 4.6085 8.87812 4.73856 9.00388C4.86861 9.12964 5.04501 9.20029 5.22893 9.20029C6.1799 9.23095 7.12148 9.00991 7.95204 8.56101C8.61344 8.9439 9.3602 9.16773 10.1296 9.2137C9.97346 9.58728 9.8934 9.9865 9.89382 10.3894V10.8901H5.07174C4.97175 10.8899 4.87288 10.9105 4.78191 10.9506C4.69094 10.9907 4.61001 11.0494 4.54469 11.1226C4.47876 11.1959 4.43047 11.2825 4.40329 11.376C4.37611 11.4695 4.37071 11.5677 4.3875 11.6635C4.3875 11.7082 4.47534 12.2134 4.63253 12.9242C4.65032 13.0124 4.64023 13.1036 4.6036 13.1862C4.56696 13.2687 4.50547 13.3386 4.42713 13.3869C4.34879 13.4351 4.25725 13.4594 4.16441 13.4567C4.07158 13.4539 3.98177 13.4241 3.90667 13.3713C2.45034 12.343 0.896921 11.0913 0.411477 10.2106C0.391072 10.1747 0.367889 10.1403 0.342128 10.1078C0.118579 9.8002 -0.000939931 9.43319 5.56676e-06 9.05723V1.84632C5.56676e-06 1.35664 0.201175 0.887025 0.55926 0.540774C0.917344 0.194522 1.40301 0 1.90942 0H13.8097C14.3161 0 14.8018 0.194522 15.1599 0.540774C15.518 0.887025 15.7191 1.35664 15.7191 1.84632V7.21092L13.1902 7.19303ZM26.9999 10.3805V17.5735C27.0031 17.9498 26.8833 18.3174 26.6578 18.6241C26.6293 18.6612 26.606 18.7018 26.5885 18.7448C26.1261 19.6389 24.5496 20.8772 23.0933 21.9144C23.0182 21.9672 22.9284 21.997 22.8355 21.9998C22.7427 22.0026 22.6512 21.9783 22.5728 21.93C22.4945 21.8818 22.433 21.8118 22.3963 21.7293C22.3597 21.6468 22.3496 21.5555 22.3674 21.4673C22.5246 20.7521 22.6078 20.2469 22.6125 20.2022C22.6286 20.1065 22.623 20.0086 22.5959 19.9153C22.5689 19.822 22.5212 19.7355 22.456 19.6619C22.3909 19.5882 22.3099 19.5292 22.2187 19.489C22.1276 19.4487 22.0284 19.4282 21.9282 19.4288H13.1902C12.9387 19.4288 12.6896 19.3807 12.4574 19.2874C12.2251 19.1941 12.0142 19.0573 11.8368 18.8849C11.6593 18.7125 11.5189 18.5079 11.4235 18.2828C11.3281 18.0578 11.2796 17.8167 11.2808 17.5735V10.3805C11.2808 9.89083 11.482 9.42121 11.8401 9.07496C12.1981 8.7287 12.6838 8.53418 13.1902 8.53418H25.0905C25.5969 8.53418 26.0826 8.7287 26.4407 9.07496C26.7988 9.42121 26.9999 9.89083 26.9999 10.3805ZM22.1825 16.6392L21.3827 14.7124L19.8015 10.8857C19.7911 10.8595 19.7787 10.8341 19.7645 10.8097L19.7368 10.765L19.6952 10.7113L19.6536 10.6666L19.6073 10.6264L19.5472 10.5817L19.5102 10.5548L19.4363 10.5146C19.4209 10.5126 19.4054 10.5126 19.39 10.5146L19.3161 10.4923H19.0479L18.9693 10.5146C18.954 10.5126 18.9384 10.5126 18.9231 10.5146L18.8537 10.5548L18.8029 10.5772L18.7474 10.6219L18.7012 10.6621L18.6595 10.7068L18.6133 10.7605C18.6133 10.7605 18.6133 10.7918 18.5902 10.8052L18.5486 10.8812L16.9304 14.7124L16.1306 16.6437C16.0939 16.7269 16.0748 16.8163 16.0745 16.9068C16.0742 16.9973 16.0927 17.0868 16.129 17.1702C16.1652 17.2537 16.2184 17.3292 16.2854 17.3923C16.3524 17.4554 16.4318 17.5049 16.519 17.5378C16.6014 17.5695 16.6892 17.5862 16.7779 17.5869C16.9192 17.5841 17.0563 17.5398 17.1711 17.46C17.2858 17.3802 17.3728 17.2686 17.4205 17.1399L18.04 15.6423H20.2777L20.8972 17.1399C20.9438 17.2693 21.0305 17.3816 21.1455 17.4616C21.2605 17.5416 21.3982 17.5854 21.5399 17.5869C21.627 17.5857 21.7132 17.5691 21.7941 17.5378C21.8817 17.5054 21.9616 17.4562 22.0289 17.3932C22.0963 17.3302 22.1497 17.2546 22.186 17.171C22.2223 17.0874 22.2407 16.9976 22.2401 16.907C22.2395 16.8164 22.2199 16.7268 22.1825 16.6437V16.6392ZM18.5856 14.3011H19.7137L19.1496 12.96L18.5856 14.3011Z"/>
</mask>
<path d="M13.1902 7.19303C12.3696 7.1926 11.5789 7.49108 10.9757 8.02902C10.8541 7.92954 10.7004 7.8742 10.5411 7.87255C10.0486 7.87657 9.56002 7.78695 9.10324 7.60879C9.75081 6.79242 10.1481 5.81652 10.2498 4.79238H10.5549C10.7389 4.79238 10.9153 4.72173 11.0453 4.59597C11.1754 4.47021 11.2484 4.29965 11.2484 4.1218C11.2484 3.94395 11.1754 3.77339 11.0453 3.64763C10.9153 3.52187 10.7389 3.45123 10.5549 3.45123H8.57156V2.4096C8.57156 2.23175 8.4985 2.06119 8.36844 1.93543C8.23839 1.80967 8.06199 1.73902 7.87807 1.73902C7.69414 1.73902 7.51775 1.80967 7.3877 1.93543C7.25764 2.06119 7.18458 2.23175 7.18458 2.4096V3.4557H5.21506C5.03114 3.4557 4.85474 3.52635 4.72469 3.6521C4.59463 3.77786 4.52157 3.94842 4.52157 4.12627C4.52157 4.30412 4.59463 4.47468 4.72469 4.60044C4.85474 4.7262 5.03114 4.79685 5.21506 4.79685H8.83971C8.74575 5.54164 8.43829 6.24619 7.95204 6.83092C7.59962 6.44654 7.32375 6.00245 7.13834 5.52107C7.1131 5.43219 7.06919 5.34929 7.00933 5.27756C6.94948 5.20582 6.87498 5.14679 6.79047 5.10415C6.70597 5.0615 6.61328 5.03616 6.5182 5.0297C6.42311 5.02324 6.32767 5.03581 6.23783 5.06661C6.14799 5.09742 6.06568 5.1458 5.99605 5.20874C5.92641 5.27168 5.87094 5.34782 5.8331 5.43242C5.79526 5.51702 5.77586 5.60825 5.77612 5.70042C5.77637 5.79259 5.79627 5.88372 5.83458 5.96812C6.06182 6.55881 6.39174 7.10763 6.81009 7.59091C6.30519 7.77571 5.76874 7.86672 5.22893 7.85914C5.04501 7.85914 4.86861 7.92979 4.73856 8.05554C4.6085 8.1813 4.53544 8.35186 4.53544 8.52971C4.53544 8.70756 4.6085 8.87812 4.73856 9.00388C4.86861 9.12964 5.04501 9.20029 5.22893 9.20029C6.1799 9.23095 7.12148 9.00991 7.95204 8.56101C8.61344 8.9439 9.3602 9.16773 10.1296 9.2137C9.97346 9.58728 9.8934 9.9865 9.89382 10.3894V10.8901H5.07174C4.97175 10.8899 4.87288 10.9105 4.78191 10.9506C4.69094 10.9907 4.61001 11.0494 4.54469 11.1226C4.47876 11.1959 4.43047 11.2825 4.40329 11.376C4.37611 11.4695 4.37071 11.5677 4.3875 11.6635C4.3875 11.7082 4.47534 12.2134 4.63253 12.9242C4.65032 13.0124 4.64023 13.1036 4.6036 13.1862C4.56696 13.2687 4.50547 13.3386 4.42713 13.3869C4.34879 13.4351 4.25725 13.4594 4.16441 13.4567C4.07158 13.4539 3.98177 13.4241 3.90667 13.3713C2.45034 12.343 0.896921 11.0913 0.411477 10.2106C0.391072 10.1747 0.367889 10.1403 0.342128 10.1078C0.118579 9.8002 -0.000939931 9.43319 5.56676e-06 9.05723V1.84632C5.56676e-06 1.35664 0.201175 0.887025 0.55926 0.540774C0.917344 0.194522 1.40301 0 1.90942 0H13.8097C14.3161 0 14.8018 0.194522 15.1599 0.540774C15.518 0.887025 15.7191 1.35664 15.7191 1.84632V7.21092L13.1902 7.19303ZM26.9999 10.3805V17.5735C27.0031 17.9498 26.8833 18.3174 26.6578 18.6241C26.6293 18.6612 26.606 18.7018 26.5885 18.7448C26.1261 19.6389 24.5496 20.8772 23.0933 21.9144C23.0182 21.9672 22.9284 21.997 22.8355 21.9998C22.7427 22.0026 22.6512 21.9783 22.5728 21.93C22.4945 21.8818 22.433 21.8118 22.3963 21.7293C22.3597 21.6468 22.3496 21.5555 22.3674 21.4673C22.5246 20.7521 22.6078 20.2469 22.6125 20.2022C22.6286 20.1065 22.623 20.0086 22.5959 19.9153C22.5689 19.822 22.5212 19.7355 22.456 19.6619C22.3909 19.5882 22.3099 19.5292 22.2187 19.489C22.1276 19.4487 22.0284 19.4282 21.9282 19.4288H13.1902C12.9387 19.4288 12.6896 19.3807 12.4574 19.2874C12.2251 19.1941 12.0142 19.0573 11.8368 18.8849C11.6593 18.7125 11.5189 18.5079 11.4235 18.2828C11.3281 18.0578 11.2796 17.8167 11.2808 17.5735V10.3805C11.2808 9.89083 11.482 9.42121 11.8401 9.07496C12.1981 8.7287 12.6838 8.53418 13.1902 8.53418H25.0905C25.5969 8.53418 26.0826 8.7287 26.4407 9.07496C26.7988 9.42121 26.9999 9.89083 26.9999 10.3805ZM22.1825 16.6392L21.3827 14.7124L19.8015 10.8857C19.7911 10.8595 19.7787 10.8341 19.7645 10.8097L19.7368 10.765L19.6952 10.7113L19.6536 10.6666L19.6073 10.6264L19.5472 10.5817L19.5102 10.5548L19.4363 10.5146C19.4209 10.5126 19.4054 10.5126 19.39 10.5146L19.3161 10.4923H19.0479L18.9693 10.5146C18.954 10.5126 18.9384 10.5126 18.9231 10.5146L18.8537 10.5548L18.8029 10.5772L18.7474 10.6219L18.7012 10.6621L18.6595 10.7068L18.6133 10.7605C18.6133 10.7605 18.6133 10.7918 18.5902 10.8052L18.5486 10.8812L16.9304 14.7124L16.1306 16.6437C16.0939 16.7269 16.0748 16.8163 16.0745 16.9068C16.0742 16.9973 16.0927 17.0868 16.129 17.1702C16.1652 17.2537 16.2184 17.3292 16.2854 17.3923C16.3524 17.4554 16.4318 17.5049 16.519 17.5378C16.6014 17.5695 16.6892 17.5862 16.7779 17.5869C16.9192 17.5841 17.0563 17.5398 17.1711 17.46C17.2858 17.3802 17.3728 17.2686 17.4205 17.1399L18.04 15.6423H20.2777L20.8972 17.1399C20.9438 17.2693 21.0305 17.3816 21.1455 17.4616C21.2605 17.5416 21.3982 17.5854 21.5399 17.5869C21.627 17.5857 21.7132 17.5691 21.7941 17.5378C21.8817 17.5054 21.9616 17.4562 22.0289 17.3932C22.0963 17.3302 22.1497 17.2546 22.186 17.171C22.2223 17.0874 22.2407 16.9976 22.2401 16.907C22.2395 16.8164 22.2199 16.7268 22.1825 16.6437V16.6392ZM18.5856 14.3011H19.7137L19.1496 12.96L18.5856 14.3011Z" stroke="black" stroke-width="4" mask="url(#path-1-inside-1_147_590)"/>
</svg>
