<svg width="8" height="8" viewBox="0 0 8 8" fill="none" xmlns="http://www.w3.org/2000/svg">
<path fill-rule="evenodd" clip-rule="evenodd" d="M3.23977 0.320351C2.15545 -0.289959 1.1948 -0.00298172 0.396334 0.966426C-0.374306 1.90208 0.151112 3.5886 0.528824 4.80098C0.618874 5.09005 0.700549 5.35218 0.754224 5.57073C1.0331 6.70592 1.2999 7.4133 1.90827 7.92525C2.20957 8.17875 2.5512 7.7431 2.91162 7.28345C3.22412 6.88495 3.55075 6.46843 3.87745 6.46743C4.19885 6.46645 4.5203 6.88233 4.82845 7.28098C5.18415 7.74115 5.52215 8.17838 5.82185 7.92525C6.28653 7.53277 6.49758 7.24482 6.7529 6.43625C7.03135 5.55447 7.48095 4.5 7.8384 3.2845C8.0899 2.42928 8.12003 1.55863 7.3952 0.718176C6.36035 -0.481712 4.926 0.138058 4.2583 0.534901L5.1627 1.3102C5.26753 1.40005 5.27968 1.55788 5.1898 1.6627C5.09995 1.76753 4.94212 1.77968 4.8373 1.6898L3.23977 0.320351Z" fill="white"/>
</svg>
